<svg width="118" height="31" viewBox="0 0 118 31" fill="none" xmlns="http://www.w3.org/2000/svg">
<path d="M25.1795 9.48072C25.1795 4.67698 22.0064 0.490234 15.0432 0.490234H0.587891V29.7534H6.36119V18.5153H10.9887L19.5384 29.7534H26.722L17.9519 18.2509C22.8878 17.3254 25.1795 13.5793 25.1795 9.48072ZM6.36119 5.64654H14.6465C17.6434 5.64654 19.4062 7.14496 19.4062 9.48072C19.4062 11.8165 17.6434 13.359 14.6465 13.359H6.36119V5.64654Z" fill="#212529"/>
<path d="M39.8235 8.24673C33.301 8.24673 28.4532 12.9623 28.4532 19.3086C28.4532 25.6107 33.301 30.3263 39.8235 30.3263C46.346 30.3263 51.1938 25.6107 51.1938 19.3086C51.1938 12.9623 46.346 8.24673 39.8235 8.24673ZM39.8235 13.359C43.1288 13.359 45.6409 15.7829 45.6409 19.3086C45.6409 22.7902 43.1288 25.2141 39.8235 25.2141C36.5182 25.2141 34.0061 22.7902 34.0061 19.3086C34.0061 15.7829 36.5182 13.359 39.8235 13.359Z" fill="#212529"/>
<path d="M76.1864 8.81966H70.2809L64.1991 22.3054L58.1173 8.81966H51.9914L61.4667 29.7534H66.7111L76.1864 8.81966Z" fill="#212529"/>
<path d="M92.9468 23.4072C91.9332 24.6852 90.3907 25.2141 88.6279 25.2141C85.8514 25.2141 83.6479 23.6275 83.0749 21.1155H99.2049C99.3372 20.4103 99.2931 19.8815 99.2931 19.1763C99.2931 13.0064 94.886 8.24673 88.4075 8.24673C81.885 8.24673 77.3016 13.0064 77.3016 19.2645C77.3016 25.6107 82.1054 30.3263 88.6279 30.3263C93.1672 30.3263 97.3099 27.638 98.9405 23.4072H92.9468ZM83.2072 16.9728C83.5597 14.5489 85.8955 13.0064 88.4075 13.0064C91.0077 13.0064 93.035 14.5048 93.3876 16.9728H83.2072Z" fill="#212529"/>
<path d="M104.123 8.81966V29.7534H109.676V19.573C109.676 16.2236 111.571 13.9319 115.141 13.9319H117.741V8.64337H115.185C112.761 8.64337 110.602 9.56886 109.676 10.9791V8.81966H104.123Z" fill="#212529"/>
</svg>
