<svg width="232" height="152" viewBox="0 0 232 152" fill="none" xmlns="http://www.w3.org/2000/svg">
<mask id="mask0_27_944" style="mask-type:alpha" maskUnits="userSpaceOnUse" x="0" y="0" width="232" height="152">
<rect width="232" height="152" fill="#D9D9D9"/>
</mask>
<g mask="url(#mask0_27_944)">
<rect x="-29" y="-40" width="290" height="232" fill="white"/>
<path fill-rule="evenodd" clip-rule="evenodd" d="M211.12 35.4C215.605 35.4 219.24 39.0354 219.24 43.52C219.24 48.0045 215.605 51.64 211.12 51.64H164.72C169.205 51.64 172.84 55.2754 172.84 59.76C172.84 64.2445 169.205 67.88 164.72 67.88H190.24C194.725 67.88 198.36 71.5154 198.36 76C198.36 80.4845 194.725 84.12 190.24 84.12H178.438C172.784 84.12 168.2 87.7554 168.2 92.24C168.2 95.2297 170.52 97.9364 175.16 100.36C179.645 100.36 183.28 103.995 183.28 108.48C183.28 112.965 179.645 116.6 175.16 116.6H78.88C74.3955 116.6 70.76 112.965 70.76 108.48C70.76 103.995 74.3955 100.36 78.88 100.36H33.64C29.1555 100.36 25.52 96.7246 25.52 92.24C25.52 87.7554 29.1555 84.12 33.64 84.12H80.04C84.5246 84.12 88.16 80.4845 88.16 76C88.16 71.5154 84.5246 67.88 80.04 67.88H51.04C46.5555 67.88 42.92 64.2445 42.92 59.76C42.92 55.2754 46.5555 51.64 51.04 51.64H97.44C92.9555 51.64 89.32 48.0045 89.32 43.52C89.32 39.0354 92.9555 35.4 97.44 35.4H211.12ZM211.12 67.88C215.605 67.88 219.24 71.5154 219.24 76C219.24 80.4845 215.605 84.12 211.12 84.12C206.635 84.12 203 80.4845 203 76C203 71.5154 206.635 67.88 211.12 67.88Z" fill="#E9ECEF"/>
<path fill-rule="evenodd" clip-rule="evenodd" d="M149.259 34.2402L160.05 112.938L161.019 120.833C161.331 123.377 159.523 125.692 156.979 126.004L89.0492 134.345C86.5057 134.657 84.1906 132.848 83.8783 130.305L73.42 45.1289C73.2639 43.8571 74.1682 42.6996 75.44 42.5434C75.448 42.5424 75.456 42.5415 75.4641 42.5406L81.0998 41.9084M85.6569 41.3972L90.9779 40.8004Z" fill="white"/>
<path d="M150.498 34.0704C150.404 33.3865 149.774 32.9081 149.09 33.0018C148.406 33.0956 147.927 33.7261 148.021 34.41L150.498 34.0704ZM160.05 112.938L161.29 112.785C161.29 112.78 161.289 112.774 161.288 112.768L160.05 112.938ZM161.019 120.833L162.26 120.681L161.019 120.833ZM156.979 126.004L157.131 127.245L156.979 126.004ZM89.0492 134.345L89.2015 135.585L89.0492 134.345ZM83.8783 130.305L85.119 130.152L83.8783 130.305ZM73.42 45.1289L72.1793 45.2812L73.42 45.1289ZM75.4641 42.5406L75.6034 43.7828L75.4641 42.5406ZM81.2391 43.1506C81.9252 43.0737 82.419 42.4551 82.342 41.7691C82.265 41.083 81.6465 40.5893 80.9605 40.6662L81.2391 43.1506ZM85.5175 40.155C84.8315 40.232 84.3377 40.8505 84.4147 41.5366C84.4916 42.2226 85.1102 42.7164 85.7962 42.6394L85.5175 40.155ZM91.1172 42.0426C91.8033 41.9656 92.297 41.3471 92.2201 40.661C92.1431 39.975 91.5246 39.4812 90.8385 39.5582L91.1172 42.0426ZM148.021 34.41L158.811 113.108L161.288 112.768L150.498 34.0704L148.021 34.41ZM158.809 113.09L159.778 120.985L162.26 120.681L161.29 112.785L158.809 113.09ZM159.778 120.985C160.006 122.844 158.685 124.535 156.827 124.763L157.131 127.245C160.36 126.848 162.656 123.909 162.26 120.681L159.778 120.985ZM156.827 124.763L88.8968 133.104L89.2015 135.585L157.131 127.245L156.827 124.763ZM88.8968 133.104C87.0386 133.332 85.3471 132.011 85.119 130.152L82.6376 130.457C83.034 133.686 85.9728 135.982 89.2015 135.585L88.8968 133.104ZM85.119 130.152L74.6607 44.9765L72.1793 45.2812L82.6376 130.457L85.119 130.152ZM74.6607 44.9765C74.5887 44.39 75.0058 43.8561 75.5923 43.7841L75.2876 41.3028C73.3307 41.543 71.939 43.3243 72.1793 45.2812L74.6607 44.9765ZM75.5923 43.7841C75.596 43.7837 75.5997 43.7832 75.6034 43.7828L75.3247 41.2984C75.3124 41.2998 75.3 41.3012 75.2876 41.3028L75.5923 43.7841ZM75.6034 43.7828L81.2391 43.1506L80.9605 40.6662L75.3247 41.2984L75.6034 43.7828ZM85.7962 42.6394L91.1172 42.0426L90.8385 39.5582L85.5175 40.155L85.7962 42.6394Z" fill="#ADB5BD"/>
<path fill-rule="evenodd" clip-rule="evenodd" d="M146.322 39.1927L156.089 110.514L156.968 117.669C157.251 119.974 155.634 122.069 153.356 122.349L92.5231 129.818C90.2454 130.098 88.1694 128.456 87.8864 126.151L78.3934 48.8367C78.2588 47.7403 79.0384 46.7424 80.1348 46.6078L87.978 45.6448" fill="#E9ECEF"/>
<path d="M98.7394 19.25H152.49C153.219 19.25 153.918 19.5395 154.434 20.0549L170.403 36.0142C170.919 36.5299 171.209 37.2297 171.209 37.9593V111.44C171.209 112.959 169.978 114.19 168.459 114.19H98.7394C97.2206 114.19 95.9894 112.959 95.9894 111.44V22C95.9894 20.4812 97.2206 19.25 98.7394 19.25Z" fill="white" stroke="#ADB5BD" stroke-width="2.5"/>
<path d="M152.739 20.7871V34.2398C152.739 36.1618 154.297 37.7198 156.219 37.7198H165.422" stroke="#ADB5BD" stroke-width="2.5" stroke-linecap="round" stroke-linejoin="round"/>
<path d="M107.88 96.8807H138.04M107.88 37.7207H138.04H107.88ZM107.88 51.6407H157.76H107.88ZM107.88 66.7207H157.76H107.88ZM107.88 81.8007H157.76H107.88Z" stroke="#ADB5BD" stroke-width="2.5" stroke-linecap="round" stroke-linejoin="round"/>
</g>
</svg>
