<svg width="232" height="152" viewBox="0 0 232 152" fill="none" xmlns="http://www.w3.org/2000/svg">
<mask id="mask0_28_982" style="mask-type:alpha" maskUnits="userSpaceOnUse" x="0" y="0" width="232" height="152">
<rect width="232" height="152" fill="#D9D9D9"/>
</mask>
<g mask="url(#mask0_28_982)">
<rect x="-10.5" y="-46" width="250" height="200" fill="white"/>
<path fill-rule="evenodd" clip-rule="evenodd" d="M52.5 88H143.5C144.015 88 144.517 87.9444 145 87.8389C145.483 87.9444 145.985 88 146.5 88H198.5C202.366 88 205.5 84.866 205.5 81C205.5 77.134 202.366 74 198.5 74H192.5C188.634 74 185.5 70.866 185.5 67C185.5 63.134 188.634 60 192.5 60H211.5C215.366 60 218.5 56.866 218.5 53C218.5 49.134 215.366 46 211.5 46H189.5C193.366 46 196.5 42.866 196.5 39C196.5 35.134 193.366 32 189.5 32H125.5C129.366 32 132.5 28.866 132.5 25C132.5 21.134 129.366 18 125.5 18H68.5C64.634 18 61.5 21.134 61.5 25C61.5 28.866 64.634 32 68.5 32H28.5C24.634 32 21.5 35.134 21.5 39C21.5 42.866 24.634 46 28.5 46H53.5C57.366 46 60.5 49.134 60.5 53C60.5 56.866 57.366 60 53.5 60H13.5C9.63401 60 6.5 63.134 6.5 67C6.5 70.866 9.63401 74 13.5 74H52.5C48.634 74 45.5 77.134 45.5 81C45.5 84.866 48.634 88 52.5 88ZM215.5 88C219.366 88 222.5 84.866 222.5 81C222.5 77.134 219.366 74 215.5 74C211.634 74 208.5 77.134 208.5 81C208.5 84.866 211.634 88 215.5 88Z" fill="#E9ECEF"/>
<path fill-rule="evenodd" clip-rule="evenodd" d="M89.5831 115.383L84.8617 116.046C82.324 116.403 79.9777 114.635 79.6211 112.097L66.7058 20.2001C66.3492 17.6625 68.1173 15.3162 70.6549 14.9595L161.403 2.20569C163.941 1.84904 166.287 3.61711 166.644 6.15477C166.644 6.15477 167.469 12.0306 167.754 14.0518" fill="white"/>
<path fill-rule="evenodd" clip-rule="evenodd" d="M92.5141 110.266L88.2269 110.875C85.9226 111.203 83.795 109.601 83.4748 107.297L71.8804 23.8641C71.5603 21.5602 73.1687 19.4269 75.4731 19.0994L157.877 7.3872C160.181 7.05968 162.308 8.66188 162.629 10.9658L163.625 18.1355C163.679 18.5234 167.238 44.2748 174.303 95.3895C174.658 97.9562 172.888 100.328 170.351 100.687C170.323 100.69 170.296 100.694 170.269 100.697L92.5141 110.266Z" fill="#E9ECEF"/>
<path d="M89.5831 115.383L84.8617 116.046C82.324 116.403 79.9777 114.635 79.6211 112.097L66.7058 20.2001C66.3492 17.6625 68.1173 15.3162 70.6549 14.9595L161.403 2.20569C163.941 1.84904 166.287 3.61711 166.644 6.15477C166.644 6.15477 167.469 12.0306 167.754 14.0518" stroke="#ADB5BD" stroke-width="2.5" stroke-linecap="round"/>
<path d="M168.72 19.4004L169.3 23.0201" stroke="#ADB5BD" stroke-width="2.5" stroke-linecap="round"/>
<path d="M108.184 21.0617L200.595 30.7744C202.105 30.9332 203.201 32.2864 203.042 33.7968L193.208 127.361C193.049 128.872 191.696 129.968 190.186 129.809L97.7747 120.096C96.2642 119.937 95.1684 118.584 95.3272 117.074L105.161 23.5091C105.32 21.9987 106.673 20.9029 108.184 21.0617Z" fill="white" stroke="#ADB5BD" stroke-width="2.5"/>
<path fill-rule="evenodd" clip-rule="evenodd" d="M113.314 33.8576C113.487 32.2098 114.963 31.0144 116.611 31.1876L190.246 38.9269C191.893 39.1001 193.089 40.5763 192.916 42.224L186.389 104.322C186.216 105.97 184.74 107.165 183.092 106.992L109.457 99.2527C107.81 99.0795 106.614 97.6033 106.787 95.9555L113.314 33.8576Z" fill="white"/>
<path fill-rule="evenodd" clip-rule="evenodd" d="M116.799 81.4578L128.618 73.4863C130.252 72.3844 132.445 72.6365 133.786 74.0802L142.582 83.5497C142.94 83.9352 143.535 83.9773 143.944 83.6461L162.408 68.6851C164.256 67.1878 166.994 67.6239 168.285 69.6211L180.25 88.1267L181.913 90.9013L181.103 100.49C181.055 101.05 180.555 101.462 179.996 101.399L113.6 94.0226C113.058 93.9624 112.664 93.4796 112.714 92.937L113.604 83.2702L116.799 81.4578Z" fill="#E9ECEF"/>
<path d="M116.481 32.4308L190.115 40.17C191.076 40.2711 191.774 41.1322 191.672 42.0934L185.146 104.191C185.045 105.153 184.184 105.85 183.222 105.749L109.588 98.0095C108.627 97.9085 107.929 97.0474 108.03 96.0862L114.557 33.9883C114.658 33.027 115.519 32.3297 116.481 32.4308Z" stroke="#ADB5BD" stroke-width="2.5"/>
<circle cx="131.057" cy="53.7011" r="6.96" transform="rotate(6 131.057 53.7011)" fill="#E9ECEF" stroke="#ADB5BD" stroke-width="2.5"/>
<path d="M114.466 83.2532C119.032 80.0999 128.164 73.7933 128.164 73.7933C130.059 72.5152 132.603 72.8075 134.159 74.4823L142.48 83.4409C142.895 83.8881 143.586 83.9369 144.06 83.5528L161.854 69.1344C163.845 67.5211 166.767 67.8273 168.381 69.8183C168.485 69.947 168.582 70.0811 168.672 70.2202C168.672 70.2202 179.075 86.7279 181.506 90.5852" stroke="#ADB5BD" stroke-width="2.5" stroke-linecap="round"/>
</g>
</svg>
