<svg width="20" height="21" viewBox="0 0 20 21" fill="none" xmlns="http://www.w3.org/2000/svg">
<g clip-path="url(#clip0_1_24289)">
<path d="M6.66699 5.50016V8.83266H9.16699V5.50016H10.8337V8.83266H13.3337V5.50016H15.0003V8.83266L15.8337 8.8335C16.4713 8.83346 17.0849 9.0771 17.5489 9.51457C18.0128 9.95203 18.2921 10.5503 18.3295 11.1868L18.3337 11.3335V12.1668C18.3337 13.0118 18.0195 13.7835 17.5012 14.371L17.5003 18.0002C17.5003 18.2212 17.4125 18.4331 17.2562 18.5894C17.1 18.7457 16.888 18.8335 16.667 18.8335H3.33366C3.11265 18.8335 2.90068 18.7457 2.7444 18.5894C2.58812 18.4331 2.50033 18.2212 2.50033 18.0002V14.3668C2.05255 13.8566 1.77011 13.2226 1.69033 12.5485L1.67199 12.3377L1.66699 12.1668V11.3335C1.66696 10.6958 1.9106 10.0822 2.34806 9.61828C2.78553 9.15432 3.38375 8.87507 4.02033 8.83766L4.16699 8.8335L5.00033 8.83266V5.50016H6.66699ZM7.50199 14.3677L7.45699 14.4202C6.91074 15.0166 6.16602 15.3937 5.36199 15.481L5.17033 15.496L5.00033 15.5002C4.71283 15.5002 4.43366 15.4635 4.16699 15.3952V17.1668H15.8337V15.3952C15.2881 15.5354 14.716 15.5354 14.1705 15.3951C13.625 15.2547 13.1238 14.9787 12.7137 14.5927L12.5887 14.4677L12.5003 14.3702L12.4112 14.4685C11.8708 15.0358 11.1474 15.3941 10.3687 15.4802L10.167 15.4968L10.0003 15.5002C9.12821 15.5014 8.29074 15.1589 7.66949 14.5468L7.54449 14.416L7.50199 14.3677ZM15.8337 10.5002H4.16699C3.96288 10.5002 3.76588 10.5751 3.61335 10.7108C3.46082 10.8464 3.36337 11.0333 3.33949 11.236L3.33366 11.3335V12.1427L3.33616 12.2652C3.36124 12.6895 3.5475 13.0882 3.85685 13.3797C4.1662 13.6713 4.57525 13.8336 5.00033 13.8335C5.39945 13.8342 5.78557 13.6916 6.08839 13.4316C6.39122 13.1716 6.59063 12.8115 6.65033 12.4168L6.66283 12.2893L6.66699 12.1427C6.69699 11.1027 8.18949 11.0652 8.32449 12.031L8.33283 12.1427L8.33616 12.2652C8.35947 12.6884 8.5432 13.0869 8.84996 13.3795C9.15672 13.6721 9.56345 13.8368 9.98736 13.8401C10.4113 13.8434 10.8205 13.6851 11.1318 13.3973C11.443 13.1095 11.6329 12.7139 11.6628 12.291L11.6728 12.056C11.7762 11.0927 13.2245 11.0927 13.3278 12.056L13.3378 12.291C13.3676 12.7116 13.5557 13.1052 13.8642 13.3927C14.1727 13.6801 14.5787 13.8399 15.0003 13.8399C15.422 13.8399 15.8279 13.6801 16.1364 13.3927C16.4449 13.1052 16.633 12.7116 16.6628 12.291L16.667 12.1668V11.3335C16.667 11.1294 16.592 10.9324 16.4564 10.7799C16.3208 10.6273 16.1339 10.5299 15.9312 10.506L15.8337 10.5002ZM5.83366 1.3335C6.93366 2.05933 7.21949 3.0735 7.04116 3.74016C6.95541 4.06041 6.74595 4.33348 6.45886 4.49929C6.17177 4.66511 5.83057 4.71008 5.51033 4.62433C5.19008 4.53858 4.91701 4.32912 4.7512 4.04203C4.58538 3.75494 4.54041 3.41374 4.62616 3.0935C4.87533 2.1685 5.83366 2.5835 5.83366 1.3335ZM10.0003 1.3335C11.1003 2.05933 11.3862 3.0735 11.2078 3.74016C11.1221 4.06041 10.9126 4.33348 10.6255 4.49929C10.3384 4.66511 9.99724 4.71008 9.67699 4.62433C9.35674 4.53858 9.08368 4.32912 8.91786 4.04203C8.75205 3.75494 8.70707 3.41374 8.79283 3.0935C9.04199 2.1685 10.0003 2.5835 10.0003 1.3335ZM14.167 1.3335C15.267 2.05933 15.5528 3.0735 15.3745 3.74016C15.2887 4.06041 15.0793 4.33348 14.7922 4.49929C14.5051 4.66511 14.1639 4.71008 13.8437 4.62433C13.5234 4.53858 13.2503 4.32912 13.0845 4.04203C12.9187 3.75494 12.8737 3.41374 12.9595 3.0935C13.2087 2.1685 14.167 2.5835 14.167 1.3335Z" fill="#ADB5BD"/>
</g>
<defs>
<clipPath id="clip0_1_24289">
<rect width="20" height="20" fill="white" transform="translate(0 0.5)"/>
</clipPath>
</defs>
</svg>
