<svg width="20" height="21" viewBox="0 0 20 21" fill="none" xmlns="http://www.w3.org/2000/svg">
<path d="M14.1665 3.00016H17.4998C17.7209 3.00016 17.9328 3.08796 18.0891 3.24424C18.2454 3.40052 18.3332 3.61248 18.3332 3.8335V17.1668C18.3332 17.3878 18.2454 17.5998 18.0891 17.7561C17.9328 17.9124 17.7209 18.0002 17.4998 18.0002H2.49984C2.27882 18.0002 2.06686 17.9124 1.91058 17.7561C1.7543 17.5998 1.6665 17.3878 1.6665 17.1668V3.8335C1.6665 3.61248 1.7543 3.40052 1.91058 3.24424C2.06686 3.08796 2.27882 3.00016 2.49984 3.00016H5.83317V1.3335H7.49984V3.00016H12.4998V1.3335H14.1665V3.00016ZM16.6665 8.00016V4.66683H14.1665V6.3335H12.4998V4.66683H7.49984V6.3335H5.83317V4.66683H3.33317V8.00016H16.6665ZM16.6665 9.66683H3.33317V16.3335H16.6665V9.66683ZM4.99984 11.3335H9.1665V14.6668H4.99984V11.3335Z" fill="#212529"/>
</svg>
