<svg width="25" height="24" viewBox="0 0 25 24" fill="none" xmlns="http://www.w3.org/2000/svg">
<g clip-path="url(#clip0_169_13977)">
<path d="M2.5 3.993C2.50183 3.73038 2.6069 3.47902 2.79251 3.29322C2.97813 3.10742 3.22938 3.00209 3.492 3H21.508C22.056 3 22.5 3.445 22.5 3.993V20.007C22.4982 20.2696 22.3931 20.521 22.2075 20.7068C22.0219 20.8926 21.7706 20.9979 21.508 21H3.492C3.22881 20.9997 2.9765 20.895 2.79049 20.7088C2.60448 20.5226 2.5 20.2702 2.5 20.007V3.993ZM4.5 5V19H20.5V5H4.5ZM12.5 15C13.2956 15 14.0587 14.6839 14.6213 14.1213C15.1839 13.5587 15.5 12.7956 15.5 12C15.5 11.2044 15.1839 10.4413 14.6213 9.87868C14.0587 9.31607 13.2956 9 12.5 9C11.7044 9 10.9413 9.31607 10.3787 9.87868C9.81607 10.4413 9.5 11.2044 9.5 12C9.5 12.7956 9.81607 13.5587 10.3787 14.1213C10.9413 14.6839 11.7044 15 12.5 15ZM12.5 17C11.1739 17 9.90215 16.4732 8.96447 15.5355C8.02678 14.5979 7.5 13.3261 7.5 12C7.5 10.6739 8.02678 9.40215 8.96447 8.46447C9.90215 7.52678 11.1739 7 12.5 7C13.8261 7 15.0979 7.52678 16.0355 8.46447C16.9732 9.40215 17.5 10.6739 17.5 12C17.5 13.3261 16.9732 14.5979 16.0355 15.5355C15.0979 16.4732 13.8261 17 12.5 17ZM17.5 6H19.5V8H17.5V6Z" fill="#3997D8"/>
</g>
<defs>
<clipPath id="clip0_169_13977">
<rect width="24" height="24" fill="white" transform="translate(0.5)"/>
</clipPath>
</defs>
</svg>
