<svg width="20" height="20" viewBox="0 0 20 20" fill="none" xmlns="http://www.w3.org/2000/svg">
<g clip-path="url(#clip0_259_21767)">
<path d="M9.16669 9.16699V5.83366H10.8334V9.16699H14.1667V10.8337H10.8334V14.167H9.16669V10.8337H5.83335V9.16699H9.16669ZM10 18.3337C5.39752 18.3337 1.66669 14.6028 1.66669 10.0003C1.66669 5.39783 5.39752 1.66699 10 1.66699C14.6025 1.66699 18.3334 5.39783 18.3334 10.0003C18.3334 14.6028 14.6025 18.3337 10 18.3337ZM10 16.667C11.7681 16.667 13.4638 15.9646 14.7141 14.7144C15.9643 13.4641 16.6667 11.7684 16.6667 10.0003C16.6667 8.23222 15.9643 6.53652 14.7141 5.28628C13.4638 4.03604 11.7681 3.33366 10 3.33366C8.23191 3.33366 6.53622 4.03604 5.28598 5.28628C4.03573 6.53652 3.33335 8.23222 3.33335 10.0003C3.33335 11.7684 4.03573 13.4641 5.28598 14.7144C6.53622 15.9646 8.23191 16.667 10 16.667Z" fill="#3997D8"/>
</g>
<defs>
<clipPath id="clip0_259_21767">
<rect width="20" height="20" fill="white"/>
</clipPath>
</defs>
</svg>
