<svg width="20" height="20" viewBox="0 0 20 20" fill="none" xmlns="http://www.w3.org/2000/svg">
<g clip-path="url(#clip0_259_21760)">
<path d="M9.99996 18.3337C5.39746 18.3337 1.66663 14.6028 1.66663 10.0003C1.66663 5.39783 5.39746 1.66699 9.99996 1.66699C14.6025 1.66699 18.3333 5.39783 18.3333 10.0003C18.3333 14.6028 14.6025 18.3337 9.99996 18.3337ZM9.99996 16.667C11.7681 16.667 13.4638 15.9646 14.714 14.7144C15.9642 13.4641 16.6666 11.7684 16.6666 10.0003C16.6666 8.23222 15.9642 6.53652 14.714 5.28628C13.4638 4.03604 11.7681 3.33366 9.99996 3.33366C8.23185 3.33366 6.53616 4.03604 5.28591 5.28628C4.03567 6.53652 3.33329 8.23222 3.33329 10.0003C3.33329 11.7684 4.03567 13.4641 5.28591 14.7144C6.53616 15.9646 8.23185 16.667 9.99996 16.667ZM5.83329 9.16699H14.1666V10.8337H5.83329V9.16699Z" fill="#3997D8"/>
</g>
<defs>
<clipPath id="clip0_259_21760">
<rect width="20" height="20" fill="white"/>
</clipPath>
</defs>
</svg>
