<svg width="20" height="21" viewBox="0 0 20 21" fill="none" xmlns="http://www.w3.org/2000/svg">
<g clip-path="url(#clip0_1_24299)">
<path d="M2.50033 3H17.5003C17.7213 3 17.9333 3.0878 18.0896 3.24408C18.2459 3.40036 18.3337 3.61232 18.3337 3.83333V17.1667C18.3337 17.3877 18.2459 17.5996 18.0896 17.7559C17.9333 17.9122 17.7213 18 17.5003 18H2.50033C2.27931 18 2.06735 17.9122 1.91107 17.7559C1.75479 17.5996 1.66699 17.3877 1.66699 17.1667V3.83333C1.66699 3.61232 1.75479 3.40036 1.91107 3.24408C2.06735 3.0878 2.27931 3 2.50033 3ZM16.667 6.53167L10.0603 12.4483L3.33366 6.51333V16.3333H16.667V6.53167ZM3.75949 4.66667L10.0512 10.2183L16.252 4.66667H3.75949Z" fill="#ADB5BD"/>
</g>
<defs>
<clipPath id="clip0_1_24299">
<rect width="20" height="20" fill="white" transform="translate(0 0.5)"/>
</clipPath>
</defs>
</svg>
