<svg width="20" height="20" viewBox="0 0 20 20" fill="none" xmlns="http://www.w3.org/2000/svg">
<path d="M4.16667 9.25L5.83333 7.58333L10.4167 12.1667L13.3333 9.25L15.8333 11.75V4.16667H4.16667V9.25ZM4.16667 11.6075V15.8333H6.75L9.23833 13.3458L5.83333 9.94083L4.16667 11.6075ZM9.1075 15.8333H15.8333V14.1075L13.3333 11.6075L9.1075 15.8333ZM3.33333 2.5H16.6667C16.8877 2.5 17.0996 2.5878 17.2559 2.74408C17.4122 2.90036 17.5 3.11232 17.5 3.33333V16.6667C17.5 16.8877 17.4122 17.0996 17.2559 17.2559C17.0996 17.4122 16.8877 17.5 16.6667 17.5H3.33333C3.11232 17.5 2.90036 17.4122 2.74408 17.2559C2.5878 17.0996 2.5 16.8877 2.5 16.6667V3.33333C2.5 3.11232 2.5878 2.90036 2.74408 2.74408C2.90036 2.5878 3.11232 2.5 3.33333 2.5ZM12.9167 8.33333C12.5851 8.33333 12.2672 8.20164 12.0328 7.96722C11.7984 7.7328 11.6667 7.41485 11.6667 7.08333C11.6667 6.75181 11.7984 6.43387 12.0328 6.19945C12.2672 5.96503 12.5851 5.83333 12.9167 5.83333C13.2482 5.83333 13.5661 5.96503 13.8005 6.19945C14.035 6.43387 14.1667 6.75181 14.1667 7.08333C14.1667 7.41485 14.035 7.7328 13.8005 7.96722C13.5661 8.20164 13.2482 8.33333 12.9167 8.33333Z" fill="#212529"/>
</svg>
