<svg width="20" height="20" viewBox="0 0 20 20" fill="none" xmlns="http://www.w3.org/2000/svg">
<g clip-path="url(#clip0_66_17312)">
<path d="M9.99984 18.8337C5.39734 18.8337 1.6665 15.1028 1.6665 10.5003C1.6665 5.89783 5.39734 2.16699 9.99984 2.16699C11.2937 2.16602 12.57 2.46681 13.7273 3.04545C14.8846 3.62409 15.891 4.46464 16.6665 5.50033H14.4082C13.4459 4.65179 12.2591 4.09896 10.9904 3.90816C9.72171 3.71736 8.42489 3.89671 7.25558 4.42467C6.08626 4.95264 5.09413 5.8068 4.39823 6.88465C3.70233 7.96251 3.33223 9.21827 3.33233 10.5013C3.33244 11.7842 3.70275 13.0399 4.39883 14.1177C5.09491 15.1954 6.08719 16.0494 7.25659 16.5772C8.42599 17.1049 9.72285 17.2841 10.9915 17.0931C12.2602 16.9021 13.4468 16.349 14.409 15.5003H16.6673C15.8917 16.5361 14.8852 17.3768 13.7277 17.9554C12.5703 18.534 11.2939 18.8348 9.99984 18.8337ZM15.8332 13.8337V11.3337H9.1665V9.667H15.8332V7.167L19.9998 10.5003L15.8332 13.8337Z" fill="#212529"/>
</g>
<defs>
<clipPath id="clip0_66_17312">
<rect width="20" height="20" fill="white" transform="translate(0 0.5)"/>
</clipPath>
</defs>
</svg>
