<svg width="20" height="21" viewBox="0 0 20 21" fill="none" xmlns="http://www.w3.org/2000/svg">
<g clip-path="url(#clip0_1_24296)">
<path d="M7.805 9.40167C8.58695 10.7754 9.7246 11.9131 11.0983 12.695L11.835 11.6633C11.9535 11.4974 12.1286 11.3807 12.3273 11.3353C12.526 11.2898 12.7345 11.3188 12.9133 11.4167C14.0919 12.0608 15.3935 12.4481 16.7325 12.5533C16.9415 12.5699 17.1365 12.6646 17.2788 12.8186C17.421 12.9726 17.5 13.1745 17.5 13.3842V17.1025C17.5 17.3088 17.4235 17.5078 17.2853 17.661C17.1471 17.8142 16.9569 17.9106 16.7517 17.9317C16.31 17.9775 15.865 18 15.4167 18C8.28333 18 2.5 12.2167 2.5 5.08333C2.5 4.635 2.5225 4.19 2.56833 3.74833C2.58938 3.54308 2.68582 3.35293 2.83899 3.21469C2.99216 3.07646 3.19117 2.99996 3.3975 3H7.11583C7.32547 2.99997 7.52741 3.07896 7.6814 3.22121C7.83539 3.36346 7.93011 3.55852 7.94667 3.7675C8.05185 5.10649 8.43923 6.40807 9.08333 7.58667C9.18122 7.76547 9.21018 7.97395 9.16472 8.17266C9.11927 8.37137 9.00255 8.54654 8.83667 8.665L7.805 9.40167ZM5.70333 8.85417L7.28667 7.72333C6.83732 6.75341 6.52946 5.72403 6.3725 4.66667H4.175C4.17 4.805 4.1675 4.94417 4.1675 5.08333C4.16667 11.2967 9.20333 16.3333 15.4167 16.3333C15.5558 16.3333 15.695 16.3308 15.8333 16.325V14.1275C14.776 13.9705 13.7466 13.6627 12.7767 13.2133L11.6458 14.7967C11.1906 14.6198 10.7483 14.4109 10.3225 14.1717L10.2742 14.1442C8.63965 13.2139 7.28607 11.8604 6.35583 10.2258L6.32833 10.1775C6.08909 9.75166 5.88024 9.30945 5.70333 8.85417Z" fill="#ADB5BD"/>
</g>
<defs>
<clipPath id="clip0_1_24296">
<rect width="20" height="20" fill="white" transform="translate(0 0.5)"/>
</clipPath>
</defs>
</svg>
