<svg width="21" height="20" viewBox="0 0 21 20" fill="none" xmlns="http://www.w3.org/2000/svg">
<g clip-path="url(#clip0_169_22160)">
<path d="M18.8333 16.6725C18.8318 16.8914 18.7443 17.1008 18.5896 17.2557C18.4349 17.4105 18.2255 17.4983 18.0067 17.5H2.99333C2.77401 17.4998 2.56375 17.4125 2.40874 17.2573C2.25374 17.1022 2.16667 16.8918 2.16667 16.6725V15.8333H17.1667V6.08333L10.5 12.0833L2.16667 4.58333V3.33333C2.16667 3.11232 2.25446 2.90036 2.41074 2.74408C2.56702 2.5878 2.77899 2.5 3 2.5H18C18.221 2.5 18.433 2.5878 18.5893 2.74408C18.7455 2.90036 18.8333 3.11232 18.8333 3.33333V16.6725ZM4.195 4.16667L10.5 9.84167L16.805 4.16667H4.195ZM0.5 12.5H7.16667V14.1667H0.5V12.5ZM0.5 8.33333H4.66667V10H0.5V8.33333Z" fill="#3997D8"/>
</g>
<defs>
<clipPath id="clip0_169_22160">
<rect width="20" height="20" fill="white" transform="translate(0.5)"/>
</clipPath>
</defs>
</svg>
