<svg width="20" height="20" viewBox="0 0 20 20" fill="none" xmlns="http://www.w3.org/2000/svg">
<g clip-path="url(#clip0_169_20689)">
<path d="M3.33334 6.66667H16.6667V4.16667H3.33334V6.66667ZM11.6667 15.8333V8.33333H8.33334V15.8333H11.6667ZM13.3333 15.8333H16.6667V8.33333H13.3333V15.8333ZM6.66667 15.8333V8.33333H3.33334V15.8333H6.66667ZM2.50001 2.5H17.5C17.721 2.5 17.933 2.5878 18.0893 2.74408C18.2455 2.90036 18.3333 3.11232 18.3333 3.33333V16.6667C18.3333 16.8877 18.2455 17.0996 18.0893 17.2559C17.933 17.4122 17.721 17.5 17.5 17.5H2.50001C2.27899 17.5 2.06703 17.4122 1.91075 17.2559C1.75447 17.0996 1.66667 16.8877 1.66667 16.6667V3.33333C1.66667 3.11232 1.75447 2.90036 1.91075 2.74408C2.06703 2.5878 2.27899 2.5 2.50001 2.5Z" fill="#212529"/>
</g>
<defs>
<clipPath id="clip0_169_20689">
<rect width="20" height="20" fill="white"/>
</clipPath>
</defs>
</svg>
