<svg width="494" height="190" viewBox="0 0 494 190" fill="none" xmlns="http://www.w3.org/2000/svg">
<path d="M18.7937 67.3899C11.0408 63.9604 14.8798 55.1179 18.9191 49.5224C19.8902 48.1773 20.9968 46.6666 22.5988 46.2356C23.6446 45.9541 24.9546 45.75 26.2247 45.6558C28.8687 45.4598 31.8408 46.9733 34.3209 47.9103C35.9764 48.5357 37.9559 49.2153 39.8062 49.8236C42.098 50.577 43.8775 52.4161 44.4991 54.747L45.5 58.5003C47.5 69.3003 39.6667 72.0003 35.5 72.0003C33.847 72.0003 31.7642 70.7224 29.9922 69.2983C28.0183 67.7118 25.4721 66.8529 23.0045 67.4223L22.2597 67.5942C21.1052 67.8606 19.8773 67.8693 18.7937 67.3899Z" fill="#EEF6FB" stroke="#3997D8" stroke-width="2" stroke-linecap="round"/>
<path d="M30.4003 50.4001C26.5362 50.4001 23.4 53.5362 23.4 57.4004C23.4 61.2646 26.5362 64.4007 30.4003 64.4007C34.2645 64.4007 37.4006 61.2646 37.4006 57.4004C37.4006 53.5362 34.2645 50.4001 30.4003 50.4001ZM29.0003 60.9005L25.5001 57.4004L26.4872 56.4133L29.0003 58.9195L34.3135 53.6062L35.3005 54.6003L29.0003 60.9005Z" fill="#123146"/>
</svg>
