<svg width="494" height="190" viewBox="0 0 494 190" fill="none" xmlns="http://www.w3.org/2000/svg">
<path d="M271.239 76.1328C270.206 71.1762 272.727 61.4229 274.892 55.1309C275.478 53.4288 276.753 52.0184 278.463 51.4568C288.394 48.1959 291.545 55.8835 291.853 60.5009C293.756 70.0191 292.011 75.7625 290.21 78.23C289.484 79.2236 288.206 79.4617 286.978 79.3873L275.002 78.6614C273.295 78.558 271.588 77.807 271.239 76.1328Z" fill="#EEF6FB" stroke="#3997D8" stroke-width="2" stroke-linecap="round"/>
<path d="M281.753 59.4001C277.889 59.4001 274.753 62.5362 274.753 66.4004C274.753 70.2646 277.889 73.4007 281.753 73.4007C285.617 73.4007 288.753 70.2646 288.753 66.4004C288.753 62.5362 285.617 59.4001 281.753 59.4001ZM280.353 69.9005L276.853 66.4004L277.84 65.4133L280.353 67.9195L285.666 62.6062L286.653 63.6003L280.353 69.9005Z" fill="#123146"/>
</svg>
