<svg width="494" height="190" viewBox="0 0 494 190" fill="none" xmlns="http://www.w3.org/2000/svg">
<path d="M295.688 73.5001C291.435 67.7015 296.181 59.2566 299.362 55.3865C299.576 55.1262 299.816 54.885 300.079 54.6742C305.009 50.7223 310.634 52.1102 313.978 53.9093C315.146 54.5382 315.931 55.6612 316.39 56.9065L319.188 64.5001C321.188 72.5001 314.688 78.5001 311.188 80.5001C306.387 83.3001 302.521 81.0001 301.188 79.5001L295.688 73.5001Z" fill="#EEF6FB" stroke="#3997D8" stroke-width="2" stroke-linecap="round"/>
<path d="M307.088 59.4001C303.224 59.4001 300.088 62.5362 300.088 66.4004C300.088 70.2646 303.224 73.4007 307.088 73.4007C310.952 73.4007 314.088 70.2646 314.088 66.4004C314.088 62.5362 310.952 59.4001 307.088 59.4001ZM305.688 69.9005L302.188 66.4004L303.175 65.4133L305.688 67.9195L311.001 62.6062L311.988 63.6003L305.688 69.9005Z" fill="#123146"/>
</svg>
