<svg width="494" height="190" viewBox="0 0 494 190" fill="none" xmlns="http://www.w3.org/2000/svg">
<path d="M327.585 56.331C327.752 56.0232 327.923 55.7152 328.095 55.4115C329.155 53.5439 331.105 52.3159 333.252 52.366C339.115 52.5029 341.427 54.723 341.853 56.0003C342.653 59.6003 344.186 65.5003 344.853 68.0003C346.338 75.4259 341.189 78.1127 338.043 78.4602C337.584 78.5108 337.125 78.5455 336.673 78.6359L333.526 79.2653C331.231 79.7243 328.858 79.006 327.203 77.3511L322.352 72.5003C320.198 69.8676 320.92 66.9843 322.419 64.6644C324.054 62.1335 326.151 58.9806 327.585 56.331Z" fill="#EEF6FB" stroke="#3997D8" stroke-width="2" stroke-linecap="round"/>
<path d="M333.253 59.4001C329.389 59.4001 326.253 62.5362 326.253 66.4004C326.253 70.2646 329.389 73.4007 333.253 73.4007C337.117 73.4007 340.253 70.2646 340.253 66.4004C340.253 62.5362 337.117 59.4001 333.253 59.4001ZM331.853 69.9005L328.353 66.4004L329.34 65.4133L331.853 67.9195L337.166 62.6062L338.153 63.6003L331.853 69.9005Z" fill="#123146"/>
</svg>
