<svg width="494" height="190" viewBox="0 0 494 190" fill="none" xmlns="http://www.w3.org/2000/svg">
<path d="M347.452 66.5L350.568 58.3991C351.684 55.4958 354.583 53.6776 357.683 53.9359L360.195 54.1452C362.794 54.3619 365.036 56.0575 365.952 58.5L368.606 68.1212C369.41 71.0331 368.254 74.1318 365.741 75.8074L361.036 78.9444C358.346 80.7372 354.779 80.4559 352.404 78.2637L349.952 76C346.352 72.4 346.785 68.1667 347.452 66.5Z" fill="#EEF6FB" stroke="#3997D8" stroke-width="2" stroke-linecap="round"/>
<path d="M358.852 59.4001C354.988 59.4001 351.852 62.5362 351.852 66.4004C351.852 70.2646 354.988 73.4007 358.852 73.4007C362.717 73.4007 365.853 70.2646 365.853 66.4004C365.853 62.5362 362.717 59.4001 358.852 59.4001ZM357.452 69.9005L353.952 66.4004L354.939 65.4133L357.452 67.9195L362.766 62.6062L363.753 63.6003L357.452 69.9005Z" fill="#123146"/>
</svg>
