<svg width="494" height="190" viewBox="0 0 494 190" fill="none" xmlns="http://www.w3.org/2000/svg">
<path d="M374.159 76.5926C366.127 73.7099 368.836 61.2518 373.119 53.8892C374.043 52.3002 375.722 51.3445 377.547 51.1274C391.091 49.516 398.263 51.0926 400.261 52.5728C400.592 52.8175 400.79 53.1916 400.959 53.5665C405.011 62.566 404.679 68.5296 404.073 71.24C403.883 72.091 403.394 72.8272 402.797 73.4633L400.216 76.2172C397.995 78.5864 394.276 78.7152 391.897 76.5054C390.246 74.9725 387.867 74.5134 385.764 75.322L383.595 76.1563C383.033 76.3723 382.402 76.3023 381.901 75.9686C381.456 75.6713 380.903 75.5816 380.386 75.7226L377.232 76.5828C376.223 76.8579 375.143 76.9457 374.159 76.5926Z" fill="#EEF6FB" stroke="#3997D8" stroke-width="2" stroke-linecap="round"/>
<path d="M386.6 55.4001C382.735 55.4001 379.599 58.5362 379.599 62.4004C379.599 66.2646 382.735 69.4007 386.6 69.4007C390.464 69.4007 393.6 66.2646 393.6 62.4004C393.6 58.5362 390.464 55.4001 386.6 55.4001ZM385.199 65.9005L381.699 62.4004L382.686 61.4133L385.199 63.9195L390.513 58.6062L391.5 59.6003L385.199 65.9005Z" fill="#123146"/>
</svg>
