<svg width="494" height="190" viewBox="0 0 494 190" fill="none" xmlns="http://www.w3.org/2000/svg">
<path d="M408.075 75.2038C403.602 71.0808 407.254 61.6535 410.656 55.6069C411.657 53.8277 413.491 52.7041 415.522 52.4987C428.437 51.1928 434.187 52.7033 436.117 54.1425C436.719 54.5918 437.102 55.2792 437.561 55.874C444.519 64.8827 441.788 72.9367 439.465 75.9131C436.601 79.7095 433.269 79.8497 430.559 78.7916C427.817 77.7215 424.583 77.1164 422.135 78.7501C416.118 82.1545 410.254 77.8044 408.075 75.2038Z" fill="#EEF6FB" stroke="#3997D8" stroke-width="2" stroke-linecap="round"/>
<path d="M424.4 59.4001C420.536 59.4001 417.4 62.5362 417.4 66.4004C417.4 70.2646 420.536 73.4007 424.4 73.4007C428.264 73.4007 431.401 70.2646 431.401 66.4004C431.401 62.5362 428.264 59.4001 424.4 59.4001ZM423 69.9005L419.5 66.4004L420.487 65.4133L423 67.9195L428.313 62.6062L429.301 63.6003L423 69.9005Z" fill="#123146"/>
</svg>
