<svg width="494" height="190" viewBox="0 0 494 190" fill="none" xmlns="http://www.w3.org/2000/svg">
<path d="M445.307 73.7287C439.85 69.6967 442.165 62.3409 445.005 57.4149C446.094 55.5256 448.194 54.5553 450.369 54.3933C453.431 54.1651 457.157 53.6176 459.119 52.4756C461.945 50.8302 466.72 53.8468 468.755 55.5607C474.921 60.7712 473.037 68.244 471.324 71.3292C469.422 74.7122 466.282 75.3999 463.501 75.0816C460.721 74.7634 457.736 75.1107 455.008 75.7359C451.024 76.6493 447.134 75.0003 445.307 73.7287Z" fill="#EEF6FB" stroke="#3997D8" stroke-width="2" stroke-linecap="round"/>
<path d="M457.4 57.4001C453.536 57.4001 450.4 60.5362 450.4 64.4004C450.4 68.2646 453.536 71.4007 457.4 71.4007C461.264 71.4007 464.401 68.2646 464.401 64.4004C464.401 60.5362 461.264 57.4001 457.4 57.4001ZM456 67.9005L452.5 64.4004L453.487 63.4133L456 65.9195L461.313 60.6062L462.301 61.6003L456 67.9005Z" fill="#123146"/>
</svg>
