<svg width="494" height="190" viewBox="0 0 494 190" fill="none" xmlns="http://www.w3.org/2000/svg">
<path d="M443.006 112.798C443.202 102.83 448.565 102.009 453.556 103.766C456.898 104.942 460.825 104.736 463.236 102.14L463.551 101.801C464.806 100.449 466.561 99.5641 468.39 99.8072C477.721 101.047 478.729 110.622 477.511 115.19L477.184 116.989C476.763 119.3 475.212 121.246 473.054 122.171L463.585 126.229C462.874 126.534 462.117 126.719 461.345 126.776L453.924 127.326C450.977 127.544 448.21 125.888 447.01 123.188L443.576 115.462C443.203 114.623 442.987 113.717 443.006 112.798Z" fill="#EEF6FB" stroke="#3997D8" stroke-width="2" stroke-linecap="round"/>
<path d="M461.411 106.09C457.547 106.09 454.411 109.226 454.411 113.09C454.411 116.954 457.547 120.09 461.411 120.09C465.275 120.09 468.411 116.954 468.411 113.09C468.411 109.226 465.275 106.09 461.411 106.09ZM460.011 116.59L456.511 113.09L457.498 112.103L460.011 114.609L465.324 109.296L466.311 110.29L460.011 116.59Z" fill="#123146"/>
</svg>
