<svg width="494" height="190" viewBox="0 0 494 190" fill="none" xmlns="http://www.w3.org/2000/svg">
<path d="M411.617 106.19C415.617 104.19 420.284 108.356 422.117 110.69C423.884 112.938 419.459 104.816 433.903 104.223C435.023 104.177 436.157 104.439 437.099 105.048C444.768 110.013 444.152 118.553 442.243 124.04C441.637 125.785 440.131 127.008 438.374 127.577L425.168 131.85C424.472 132.075 423.745 132.189 423.013 132.189H413.805C411.497 132.189 409.305 131.068 408.127 129.084C399.151 113.963 406.925 108.536 411.617 106.19Z" fill="#EEF6FB" stroke="#3997D8" stroke-width="2" stroke-linecap="round"/>
<path d="M424.018 112.09C420.153 112.09 417.017 115.226 417.017 119.09C417.017 122.954 420.153 126.09 424.018 126.09C427.882 126.09 431.018 122.954 431.018 119.09C431.018 115.226 427.882 112.09 424.018 112.09ZM422.617 122.59L419.117 119.09L420.104 118.103L422.617 120.609L427.931 115.296L428.918 116.29L422.617 122.59Z" fill="#123146"/>
</svg>
