<svg width="494" height="190" viewBox="0 0 494 190" fill="none" xmlns="http://www.w3.org/2000/svg">
<path d="M368 131.015L363.087 121.189C359.646 114.308 365.084 109.646 369.537 107.522C370.838 106.901 372.328 106.912 373.709 107.326L378.737 108.834C380.558 109.381 382.523 109.163 384.18 108.231L386.466 106.945C388.418 105.847 390.786 105.789 392.789 106.791L393.809 107.301C394.936 107.864 396.255 107.903 397.414 107.407C398.483 106.948 399.718 106.91 400.711 107.515C406.564 111.076 405.816 117.962 404.587 121.189L400.82 129.409C399.751 131.739 397.495 133.299 394.938 133.476L374.743 134.868C371.923 135.063 369.263 133.543 368 131.015Z" fill="#EEF6FB" stroke="#3997D8" stroke-width="2" stroke-linecap="round"/>
<path d="M383.987 114.09C380.123 114.09 376.987 117.226 376.987 121.09C376.987 124.954 380.123 128.09 383.987 128.09C387.851 128.09 390.988 124.954 390.988 121.09C390.988 117.226 387.851 114.09 383.987 114.09ZM382.587 124.59L379.087 121.09L380.074 120.103L382.587 122.609L387.9 117.296L388.887 118.29L382.587 124.59Z" fill="#123146"/>
</svg>
