<svg width="494" height="190" viewBox="0 0 494 190" fill="none" xmlns="http://www.w3.org/2000/svg">
<path d="M51.3378 77.3044C42.6414 75.6025 44.5633 64.8707 47.3382 57.8409C47.9439 56.3064 49.177 55.1257 50.6788 54.443L53.8535 53L56.851 51.6375C58.4595 50.9063 60.2851 50.8105 61.9614 51.3693L65.7758 52.6408C66.4896 52.8787 67.2371 53 67.9895 53H70.7594C73.2884 53 75.6208 54.3641 76.8607 56.5683L79.3535 61C84.9535 72.2 77.0202 76.6667 72.3535 77.5C69.686 78.0335 66.4255 77.1142 63.9066 76.0471C61.916 75.2038 59.6693 74.9441 57.6451 75.7032L54.2766 76.9663C53.3387 77.318 52.3208 77.4968 51.3378 77.3044Z" fill="#EEF6FB" stroke="#3997D8" stroke-width="2" stroke-linecap="round"/>
<path d="M62.7538 56.4001C58.8897 56.4001 55.7535 59.5362 55.7535 63.4004C55.7535 67.2646 58.8897 70.4007 62.7538 70.4007C66.618 70.4007 69.7541 67.2646 69.7541 63.4004C69.7541 59.5362 66.618 56.4001 62.7538 56.4001ZM61.3538 66.9005L57.8536 63.4004L58.8407 62.4133L61.3538 64.9195L66.667 59.6062L67.654 60.6003L61.3538 66.9005Z" fill="#123146"/>
</svg>
