<svg width="494" height="190" viewBox="0 0 494 190" fill="none" xmlns="http://www.w3.org/2000/svg">
<path d="M339.697 125.606L338.167 122.852C337.922 122.412 337.72 121.94 337.592 121.453C334.788 110.796 342.579 107.018 347.743 106.298C348.441 106.201 349.149 106.268 349.829 106.455C357.343 108.515 361.255 112.397 363.045 115.6C364.209 117.683 363.239 120.205 362.136 122.321C360.758 124.966 359.377 128.563 358.546 130.963C358.379 131.445 358.179 131.921 357.86 132.319C354.39 136.646 344.733 136.189 343.299 136.189C342.239 136.189 341.101 131.246 340.505 127.91C340.361 127.103 340.095 126.323 339.697 125.606Z" fill="#EEF6FB" stroke="#3997D8" stroke-width="2" stroke-linecap="round"/>
<path d="M350.699 114.09C346.835 114.09 343.699 117.226 343.699 121.09C343.699 124.954 346.835 128.09 350.699 128.09C354.563 128.09 357.699 124.954 357.699 121.09C357.699 117.226 354.563 114.09 350.699 114.09ZM349.299 124.59L345.799 121.09L346.786 120.103L349.299 122.609L354.612 117.296L355.599 118.29L349.299 124.59Z" fill="#123146"/>
</svg>
