<svg width="494" height="190" viewBox="0 0 494 190" fill="none" xmlns="http://www.w3.org/2000/svg">
<path d="M315.863 131.459C313.698 127.463 312.36 125.218 311.708 124.21C311.48 123.858 311.252 123.496 311.079 123.113C307.119 114.295 314.889 108.543 320.943 106.047C322.472 105.417 324.184 105.553 325.699 106.216L331.353 108.689C341.779 113.902 339.624 121.254 336.366 125.498C335.466 126.669 334.711 127.972 334.447 129.425L334.17 130.95C333.962 132.092 333.448 133.189 332.362 133.598C330.039 134.471 325.761 134.901 322.078 135.081C319.482 135.208 317.101 133.744 315.863 131.459Z" fill="#EEF6FB" stroke="#3997D8" stroke-width="2" stroke-linecap="round"/>
<path d="M324.754 114.09C320.89 114.09 317.754 117.226 317.754 121.09C317.754 124.954 320.89 128.09 324.754 128.09C328.618 128.09 331.754 124.954 331.754 121.09C331.754 117.226 328.618 114.09 324.754 114.09ZM323.354 124.59L319.854 121.09L320.841 120.103L323.354 122.609L328.667 117.296L329.654 118.29L323.354 124.59Z" fill="#123146"/>
</svg>
