<svg width="494" height="190" viewBox="0 0 494 190" fill="none" xmlns="http://www.w3.org/2000/svg">
<path d="M291.814 135.667L286.822 120.689C283.686 114.071 290.183 108.489 295.216 105.726C296.552 104.993 298.137 104.864 299.593 105.313C308.015 107.911 311.053 112.287 311.717 115.986C312.226 118.822 310.352 122.278 309.83 125.112C309.26 128.21 308.761 132.326 308.449 135.388C308.361 136.25 308.158 137.117 307.62 137.796C305.031 141.062 299.793 140.73 295.841 139.696C293.882 139.184 292.454 137.587 291.814 135.667Z" fill="#EEF6FB" stroke="#3997D8" stroke-width="2" stroke-linecap="round"/>
<path d="M299.222 114.09C295.357 114.09 292.221 117.226 292.221 121.09C292.221 124.954 295.357 128.09 299.222 128.09C303.086 128.09 306.222 124.954 306.222 121.09C306.222 117.226 303.086 114.09 299.222 114.09ZM297.822 124.59L294.321 121.09L295.308 120.103L297.822 122.609L303.135 117.296L304.122 118.29L297.822 124.59Z" fill="#123146"/>
</svg>
