<svg width="494" height="190" viewBox="0 0 494 190" fill="none" xmlns="http://www.w3.org/2000/svg">
<path d="M272.332 134.607L267.502 115.689C264.821 105.189 273.502 106.689 279.002 107.189C282.157 107.476 284.644 109.494 286.168 111.29C287.144 112.44 287.386 113.996 287.173 115.49L284.382 135.024C284.137 136.739 283.262 138.381 281.593 138.844C280.548 139.134 279.374 139.288 278.221 139.353C275.368 139.515 273.038 137.375 272.332 134.607Z" fill="#EEF6FB" stroke="#3997D8" stroke-width="2" stroke-linecap="round"/>
<path d="M277.402 114.09C273.538 114.09 270.402 117.226 270.402 121.09C270.402 124.954 273.538 128.09 277.402 128.09C281.266 128.09 284.403 124.954 284.403 121.09C284.403 117.226 281.266 114.09 277.402 114.09ZM276.002 124.59L272.502 121.09L273.489 120.103L276.002 122.609L281.315 117.296L282.302 118.29L276.002 124.59Z" fill="#123146"/>
</svg>
