<svg width="494" height="190" viewBox="0 0 494 190" fill="none" xmlns="http://www.w3.org/2000/svg">
<path d="M252.867 140.19C252.102 139.807 249.14 122.919 247.571 113.431C247.435 112.607 246.978 111.83 247.001 110.995C247.063 108.682 252.776 108.625 258.867 108.19C262.506 107.93 264.794 108.782 266.087 109.731C267.122 110.49 267.271 111.862 267.09 113.133L263.528 138.065C263.421 138.81 263.23 139.563 262.756 140.148C259.883 143.698 253.795 140.654 252.867 140.19Z" fill="#EEF6FB" stroke="#3997D8" stroke-width="2" stroke-linecap="round"/>
<path d="M257.268 114.09C253.403 114.09 250.267 117.226 250.267 121.09C250.267 124.954 253.403 128.09 257.268 128.09C261.132 128.09 264.268 124.954 264.268 121.09C264.268 117.226 261.132 114.09 257.268 114.09ZM255.867 124.59L252.367 121.09L253.354 120.103L255.867 122.609L261.181 117.296L262.168 118.29L255.867 124.59Z" fill="#123146"/>
</svg>
