<svg width="494" height="190" viewBox="0 0 494 190" fill="none" xmlns="http://www.w3.org/2000/svg">
<path d="M228.121 111.039L230.224 136.813C230.399 138.946 231.508 141.013 233.565 141.603C236.504 142.445 239.438 142.006 241.162 141.191C242.171 140.714 242.588 139.618 242.739 138.512C244.136 128.265 246.632 110.446 247.011 109.689C247.411 108.889 240.844 108.356 237.511 108.189C232.91 108.42 230.403 108.771 229.136 109.091C228.269 109.311 228.048 110.148 228.121 111.039Z" fill="#EEF6FB" stroke="#3997D8" stroke-width="2" stroke-linecap="round"/>
<path d="M237.911 114.09C234.047 114.09 230.911 117.226 230.911 121.09C230.911 124.954 234.047 128.09 237.911 128.09C241.775 128.09 244.911 124.954 244.911 121.09C244.911 117.226 241.775 114.09 237.911 114.09ZM236.511 124.59L233.011 121.09L233.998 120.103L236.511 122.609L241.824 117.296L242.811 118.29L236.511 124.59Z" fill="#123146"/>
</svg>
