<svg width="494" height="190" viewBox="0 0 494 190" fill="none" xmlns="http://www.w3.org/2000/svg">
<path d="M207.311 120.19L210.268 134.235C210.883 137.154 213.39 139.289 216.369 139.431C219.524 139.581 222.336 137.46 223.059 134.386L225.812 122.689C227.726 115.796 227.655 111.836 226.75 109.69C225.504 106.739 220.216 106.799 217.048 107.27C216.727 107.318 216.413 107.37 216.114 107.424C215.249 107.58 214.363 107.588 213.483 107.582C206.776 107.534 206.527 115.797 207.311 120.19Z" fill="#EEF6FB" stroke="#3997D8" stroke-width="2" stroke-linecap="round"/>
<path d="M216.712 114.09C212.848 114.09 209.712 117.226 209.712 121.09C209.712 124.954 212.848 128.09 216.712 128.09C220.576 128.09 223.712 124.954 223.712 121.09C223.712 117.226 220.576 114.09 216.712 114.09ZM215.312 124.59L211.812 121.09L212.799 120.103L215.312 122.609L220.625 117.296L221.612 118.29L215.312 124.59Z" fill="#123146"/>
</svg>
