<svg width="494" height="190" viewBox="0 0 494 190" fill="none" xmlns="http://www.w3.org/2000/svg">
<path d="M184.102 119.689C183.133 112.905 189.273 108.274 194.306 105.953C196.324 105.022 198.651 105.476 200.429 106.81L205.099 110.313C205.433 110.563 205.753 110.837 206.005 111.17C210.227 116.753 205.953 130.067 202.73 137.321C202.327 138.229 201.728 139.055 200.881 139.574C197.372 141.725 193.314 141.095 190.296 139.89C188.184 139.047 187.019 136.84 186.683 134.59C186.042 130.295 184.817 123.502 184.102 119.689Z" fill="#EEF6FB" stroke="#3997D8" stroke-width="2" stroke-linecap="round"/>
<path d="M195.502 114.09C191.638 114.09 188.502 117.226 188.502 121.09C188.502 124.954 191.638 128.09 195.502 128.09C199.366 128.09 202.502 124.954 202.502 121.09C202.502 117.226 199.366 114.09 195.502 114.09ZM194.102 124.59L190.602 121.09L191.589 120.103L194.102 122.609L199.415 117.296L200.402 118.29L194.102 124.59Z" fill="#123146"/>
</svg>
