<svg width="494" height="190" viewBox="0 0 494 190" fill="none" xmlns="http://www.w3.org/2000/svg">
<path d="M159.051 123.566C160.538 125.693 161.133 128.562 161.303 130.815C161.419 132.352 161.767 133.988 163.143 134.681C165.776 136.007 170.197 136.253 174.025 136.102C176.928 135.987 179.261 133.819 179.914 130.988L180.054 130.382C180.236 129.593 180.562 128.843 180.976 128.147C187.437 117.31 182.413 111.535 178.291 109.584C177.667 109.288 177.045 108.983 176.486 108.577L175.115 107.579C173.083 106.101 170.415 105.826 168.124 106.857L161.829 109.689C156.751 111.382 156.568 116.775 157.338 120.413C157.589 121.596 158.358 122.575 159.051 123.566Z" fill="#EEF6FB" stroke="#3997D8" stroke-width="2" stroke-linecap="round"/>
<path d="M170.229 114.09C166.365 114.09 163.229 117.226 163.229 121.09C163.229 124.954 166.365 128.09 170.229 128.09C174.094 128.09 177.23 124.954 177.23 121.09C177.23 117.226 174.094 114.09 170.229 114.09ZM168.829 124.59L165.329 121.09L166.316 120.103L168.829 122.609L174.143 117.296L175.13 118.29L168.829 124.59Z" fill="#123146"/>
</svg>
