<svg width="494" height="190" viewBox="0 0 494 190" fill="none" xmlns="http://www.w3.org/2000/svg">
<path d="M137.382 108.839C126.062 110.869 130.054 123.056 134.309 130.421C134.987 131.595 135.447 133.05 136.585 133.787C139.029 135.369 144.728 136.438 148.894 136.965C150.199 137.13 151.612 136.9 152.27 135.761C153.24 134.082 153.676 131.446 153.827 129.379C153.908 128.27 154.168 127.173 154.643 126.167C160.225 114.343 156.275 109.971 152.506 108.94C151.468 108.656 150.401 108.421 149.456 107.906L148.377 107.318C146.493 106.29 144.241 106.183 142.268 107.029L139.325 108.29C138.707 108.555 138.044 108.72 137.382 108.839Z" fill="#EEF6FB" stroke="#3997D8" stroke-width="2" stroke-linecap="round"/>
<path d="M143.793 114.09C139.929 114.09 136.793 117.226 136.793 121.09C136.793 124.954 139.929 128.09 143.793 128.09C147.657 128.09 150.793 124.954 150.793 121.09C150.793 117.226 147.657 114.09 143.793 114.09ZM142.393 124.59L138.893 121.09L139.88 120.103L142.393 122.609L147.706 117.296L148.693 118.29L142.393 124.59Z" fill="#123146"/>
</svg>
