<svg width="494" height="190" viewBox="0 0 494 190" fill="none" xmlns="http://www.w3.org/2000/svg">
<path d="M86.958 77.9055C77.4461 74.3475 81.2869 61.0831 85.0489 53.6052C85.4213 52.865 85.9337 52.1888 86.6951 51.862C90.6196 50.178 100.622 50.5331 107.595 51.1426C109.82 51.3371 111.802 52.6383 112.803 54.6345C117.043 63.0832 117.501 68.6326 117.004 71.2826C116.848 72.1145 116.308 72.7934 115.686 73.3675L112.863 75.9741C111.182 77.525 108.777 78.0084 106.628 77.227L105.401 76.7807C104.9 76.5984 104.352 76.591 103.846 76.7597C103.378 76.9155 102.874 76.9214 102.403 76.7765L99.2033 75.792C97.5451 75.2817 95.7565 75.4055 94.1843 76.1392L91.1659 77.5477C89.84 78.1665 88.3284 78.4181 86.958 77.9055Z" fill="#EEF6FB" stroke="#3997D8" stroke-width="2" stroke-linecap="round"/>
<path d="M99.0273 56.4001C95.1631 56.4001 92.027 59.5362 92.027 63.4004C92.027 67.2646 95.1631 70.4007 99.0273 70.4007C102.891 70.4007 106.028 67.2646 106.028 63.4004C106.028 59.5362 102.891 56.4001 99.0273 56.4001ZM97.6272 66.9005L94.1271 63.4004L95.1141 62.4133L97.6272 64.9195L102.94 59.6062L103.927 60.6003L97.6272 66.9005Z" fill="#123146"/>
</svg>
