<svg width="494" height="190" viewBox="0 0 494 190" fill="none" xmlns="http://www.w3.org/2000/svg">
<path d="M101.027 106.073C103.547 105.303 105.769 105.669 107.588 106.533C110.821 108.068 114.658 109.527 117.892 107.995L118.876 107.529C120.675 106.677 122.791 106.579 124.515 107.574C135.382 113.845 131.291 124.132 126.642 129.236C126.051 129.884 125.571 130.632 125.319 131.472C124.664 133.657 122.606 135.115 120.327 135.009L102.704 134.189H99.6336C96.9284 134.189 94.4658 132.631 93.3077 130.186L90.7042 124.689C84.9923 109.775 89.392 106.461 94.1175 106.81C96.4296 106.981 98.8098 106.75 101.027 106.073Z" fill="#EEF6FB" stroke="#3997D8" stroke-width="2" stroke-linecap="round"/>
<path d="M109.604 113.09C105.74 113.09 102.604 116.226 102.604 120.09C102.604 123.954 105.74 127.09 109.604 127.09C113.469 127.09 116.605 123.954 116.605 120.09C116.605 116.226 113.469 113.09 109.604 113.09ZM108.204 123.59L104.704 120.09L105.691 119.103L108.204 121.609L113.518 116.296L114.505 117.29L108.204 123.59Z" fill="#123146"/>
</svg>
