<svg width="494" height="190" viewBox="0 0 494 190" fill="none" xmlns="http://www.w3.org/2000/svg">
<path d="M59.0604 104.189C49.3527 106.963 50.2129 117.45 52.4594 124.319C53.0691 126.183 54.6171 127.543 56.4811 128.153C61.783 129.887 69.0634 132.188 70.0605 132.188H83.6988C84.2712 132.188 84.8647 132.154 85.3492 131.849C88.706 129.739 89.0403 120.144 89.0628 113.804C89.0699 111.819 88.232 109.892 86.6672 108.672C81.0975 104.328 78.3456 104.901 76.6619 107.122C73.6121 111.145 72.2665 110.545 69.4032 106.388C67.9422 104.266 65.1434 103.254 59.0604 104.189Z" fill="#EEF6FB" stroke="#3997D8" stroke-width="2" stroke-linecap="round"/>
<path d="M70.4609 113.09C66.5967 113.09 63.4606 116.226 63.4606 120.09C63.4606 123.954 66.5967 127.09 70.4609 127.09C74.325 127.09 77.4612 123.954 77.4612 120.09C77.4612 116.226 74.325 113.09 70.4609 113.09ZM69.0608 123.59L65.5607 120.09L66.5477 119.103L69.0608 121.609L74.374 116.296L75.3611 117.29L69.0608 123.59Z" fill="#123146"/>
</svg>
