<svg width="494" height="190" viewBox="0 0 494 190" fill="none" xmlns="http://www.w3.org/2000/svg">
<path d="M15.1826 108.306C14.7339 110.637 15.18 114.444 15.7874 117.693C16.2006 119.903 17.7823 121.684 19.8693 122.519L30.2942 126.689C31.1211 127.02 32 127.19 32.8905 127.19H42.3426C44.3771 127.19 46.3623 126.337 47.4888 124.642C52.4013 117.255 50.7106 110.633 48.8562 107.653C48.6589 107.336 48.4039 107.046 48.1357 106.786C44.9868 103.736 42.7777 102.767 41.1209 102.936C36.2579 103.43 33.1488 104.579 29.0587 101.902C25.1009 99.3123 20.808 101.605 18.2276 104.153C17.0133 105.351 15.5051 106.63 15.1826 108.306Z" fill="#EEF6FB" stroke="#3997D8" stroke-width="2" stroke-linecap="round"/>
<path d="M32.9462 107.09C29.0821 107.09 25.9459 110.226 25.9459 114.09C25.9459 117.954 29.0821 121.09 32.9462 121.09C36.8104 121.09 39.9465 117.954 39.9465 114.09C39.9465 110.226 36.8104 107.09 32.9462 107.09ZM31.5462 117.59L28.046 114.09L29.0331 113.103L31.5462 115.609L36.8594 110.296L37.8464 111.29L31.5462 117.59Z" fill="#123146"/>
</svg>
