<svg width="494" height="190" viewBox="0 0 494 190" fill="none" xmlns="http://www.w3.org/2000/svg">
<path d="M117.611 72.4089C115.649 69.8099 118.829 61.3697 121.252 56.2363C121.64 55.4144 122.184 54.6526 122.995 54.242C125.187 53.1317 128.436 53.0019 131.258 53.2376C134.073 53.4726 136.081 55.827 136.431 58.63L136.455 58.8217C136.707 60.8404 137.926 62.6854 138.68 64.5751C139.198 65.8749 139.507 67.4114 139.677 68.8019C139.889 70.5305 139.203 72.2147 138.032 73.5033L134.343 77.5605C131.829 80.3256 127.587 80.6285 124.706 78.2487L119.091 73.6112C118.601 73.2061 117.994 72.9166 117.611 72.4089Z" fill="#EEF6FB" stroke="#3997D8" stroke-width="2" stroke-linecap="round"/>
<path d="M128.253 59.4001C124.389 59.4001 121.253 62.5362 121.253 66.4004C121.253 70.2646 124.389 73.4007 128.253 73.4007C132.117 73.4007 135.253 70.2646 135.253 66.4004C135.253 62.5362 132.117 59.4001 128.253 59.4001ZM126.853 69.9005L123.353 66.4004L124.34 65.4133L126.853 67.9195L132.166 62.6062L133.153 63.6003L126.853 69.9005Z" fill="#123146"/>
</svg>
