<svg width="494" height="190" viewBox="0 0 494 190" fill="none" xmlns="http://www.w3.org/2000/svg">
<path d="M144.074 66L145.37 60.8132C145.821 59.0119 146.952 57.4124 148.69 56.7588C150.448 56.0978 152.336 55.666 154.046 55.3957C156.779 54.9638 159.297 56.6292 160.421 59.1572L162.045 62.8122C162.394 63.5974 162.897 64.309 163.476 64.9431C169.978 72.0538 166.353 75.8645 162.988 77.195C162.392 77.4306 161.795 77.6672 161.245 77.9968L157.868 80.0229C155.816 81.2543 153.277 81.3518 151.136 80.2813L149.052 79.2391C148.08 78.753 146.973 78.6028 145.945 78.25C141.815 76.8329 142.877 69.7389 144.074 66Z" fill="#EEF6FB" stroke="#3997D8" stroke-width="2" stroke-linecap="round"/>
<path d="M153.974 59.4001C150.109 59.4001 146.973 62.5362 146.973 66.4004C146.973 70.2646 150.109 73.4007 153.974 73.4007C157.838 73.4007 160.974 70.2646 160.974 66.4004C160.974 62.5362 157.838 59.4001 153.974 59.4001ZM152.574 69.9005L149.073 66.4004L150.06 65.4133L152.574 67.9195L157.887 62.6062L158.874 63.6003L152.574 69.9005Z" fill="#123146"/>
</svg>
