<svg width="494" height="190" viewBox="0 0 494 190" fill="none" xmlns="http://www.w3.org/2000/svg">
<path d="M169.16 75.7557C165.096 70.039 167.621 60.7845 169.798 55.9437C170.082 55.3123 170.48 54.7361 170.987 54.2639C178.332 47.4101 185.503 53.4691 188.244 57.5001C197.453 67.8603 188.074 77.0547 181.557 81.0231C181.021 81.3496 180.424 81.5828 179.809 81.4581C177.64 81.0185 173.26 78.719 170.538 77.012C170.006 76.6785 169.524 76.2675 169.16 75.7557Z" fill="#EEF6FB" stroke="#3997D8" stroke-width="2" stroke-linecap="round"/>
<path d="M179.144 59.4001C175.28 59.4001 172.144 62.5362 172.144 66.4004C172.144 70.2646 175.28 73.4007 179.144 73.4007C183.009 73.4007 186.145 70.2646 186.145 66.4004C186.145 62.5362 183.009 59.4001 179.144 59.4001ZM177.744 69.9005L174.244 66.4004L175.231 65.4133L177.744 67.9195L183.058 62.6062L184.045 63.6003L177.744 69.9005Z" fill="#123146"/>
</svg>
