<svg width="494" height="190" viewBox="0 0 494 190" fill="none" xmlns="http://www.w3.org/2000/svg">
<path d="M195.949 77.5593C189.127 72.1959 192.557 61.1474 195.736 55.1228C196.133 54.371 196.692 53.7142 197.382 53.2183C207.105 46.2344 212.07 55.3614 213.358 61.0001C216.958 75.4001 212.525 79.0001 209.858 79.0001L199.05 78.5677C197.938 78.5232 196.823 78.2469 195.949 77.5593Z" fill="#EEF6FB" stroke="#3997D8" stroke-width="2" stroke-linecap="round"/>
<path d="M203.259 59.4001C199.395 59.4001 196.258 62.5362 196.258 66.4004C196.258 70.2646 199.395 73.4007 203.259 73.4007C207.123 73.4007 210.259 70.2646 210.259 66.4004C210.259 62.5362 207.123 59.4001 203.259 59.4001ZM201.859 69.9005L198.359 66.4004L199.346 65.4133L201.859 67.9195L207.172 62.6062L208.159 63.6003L201.859 69.9005Z" fill="#123146"/>
</svg>
