<svg width="494" height="190" viewBox="0 0 494 190" fill="none" xmlns="http://www.w3.org/2000/svg">
<path d="M220.649 82.2434C211.533 79.3012 215.437 62.3733 218.658 54.0006C221.695 48.2308 226.844 48.0516 230.607 49.175C232.629 49.7787 235.194 49.9463 236.617 51.504C239.307 54.449 241.03 62.3586 241.657 67.0006C244.175 76.3536 240.682 79.3981 238.013 79.9163C237.451 80.0254 236.876 80.0708 236.321 80.2097L231.157 81.5006L222.692 82.3918C222.006 82.464 221.305 82.4551 220.649 82.2434Z" fill="#EEF6FB" stroke="#3997D8" stroke-width="2" stroke-linecap="round"/>
<path d="M228.558 59.4001C224.693 59.4001 221.557 62.5362 221.557 66.4004C221.557 70.2646 224.693 73.4007 228.558 73.4007C232.422 73.4007 235.558 70.2646 235.558 66.4004C235.558 62.5362 232.422 59.4001 228.558 59.4001ZM227.157 69.9005L223.657 66.4004L224.644 65.4133L227.157 67.9195L232.471 62.6062L233.458 63.6003L227.157 69.9005Z" fill="#123146"/>
</svg>
