<svg width="494" height="190" viewBox="0 0 494 190" fill="none" xmlns="http://www.w3.org/2000/svg">
<path d="M243.09 76.3601C242.498 70.5973 244.96 60.8195 246.876 54.7851C247.249 53.6084 247.942 52.5479 248.937 51.8169C256.614 46.1758 262.79 49.6748 265.657 52.9607C266.229 53.616 266.563 54.434 266.759 55.2814L267.963 60.4992C272.05 77.5307 267.242 81.9924 263.049 82.2212C261.677 82.2961 260.269 82.2918 258.897 82.3857C256.051 82.5806 252.811 81.6531 250.827 80.8674C250.246 80.6374 249.651 80.4472 249.035 80.3445L247.204 80.0393C245.151 79.6972 243.302 78.4304 243.09 76.3601Z" fill="#EEF6FB" stroke="#3997D8" stroke-width="2" stroke-linecap="round"/>
<path d="M256.363 59.4001C252.499 59.4001 249.363 62.5362 249.363 66.4004C249.363 70.2646 252.499 73.4007 256.363 73.4007C260.227 73.4007 263.364 70.2646 263.364 66.4004C263.364 62.5362 260.227 59.4001 256.363 59.4001ZM254.963 69.9005L251.463 66.4004L252.45 65.4133L254.963 67.9195L260.276 62.6062L261.263 63.6003L254.963 69.9005Z" fill="#123146"/>
</svg>
