<svg width="20" height="20" viewBox="0 0 20 20" fill="none" xmlns="http://www.w3.org/2000/svg">
<g clip-path="url(#clip0_7_28313)">
<path d="M3.33333 3H16.6667C16.8877 3 17.0996 3.0878 17.2559 3.24408C17.4122 3.40036 17.5 3.61232 17.5 3.83333V17.1667C17.5 17.3877 17.4122 17.5996 17.2559 17.7559C17.0996 17.9122 16.8877 18 16.6667 18H3.33333C3.11232 18 2.90036 17.9122 2.74408 17.7559C2.5878 17.5996 2.5 17.3877 2.5 17.1667V3.83333C2.5 3.61232 2.5878 3.40036 2.74408 3.24408C2.90036 3.0878 3.11232 3 3.33333 3V3ZM9.16917 13.8333L15.0608 7.94083L13.8825 6.7625L9.16917 11.4767L6.81167 9.11917L5.63333 10.2975L9.16917 13.8333Z" fill="#3997D8"/>
</g>
<defs>
<clipPath id="clip0_7_28313">
<rect width="20" height="20" fill="white" transform="translate(0 0.5)"/>
</clipPath>
</defs>
</svg>
